%TF.GenerationSoftware,KiCad,Pcbnew,(6.0.5-0)*%
%TF.CreationDate,2022-11-13T17:01:48-06:00*%
%TF.ProjectId,skogaslider-main-pcb,736b6f67-6173-46c6-9964-65722d6d6169,rev?*%
%TF.SameCoordinates,Original*%
%TF.FileFunction,Paste,Top*%
%TF.FilePolarity,Positive*%
%FSLAX46Y46*%
G04 Gerber Fmt 4.6, Leading zero omitted, Abs format (unit mm)*
G04 Created by KiCad (PCBNEW (6.0.5-0)) date 2022-11-13 17:01:48*
%MOMM*%
%LPD*%
G01*
G04 APERTURE LIST*
G04 Aperture macros list*
%AMRoundRect*
0 Rectangle with rounded corners*
0 $1 Rounding radius*
0 $2 $3 $4 $5 $6 $7 $8 $9 X,Y pos of 4 corners*
0 Add a 4 corners polygon primitive as box body*
4,1,4,$2,$3,$4,$5,$6,$7,$8,$9,$2,$3,0*
0 Add four circle primitives for the rounded corners*
1,1,$1+$1,$2,$3*
1,1,$1+$1,$4,$5*
1,1,$1+$1,$6,$7*
1,1,$1+$1,$8,$9*
0 Add four rect primitives between the rounded corners*
20,1,$1+$1,$2,$3,$4,$5,0*
20,1,$1+$1,$4,$5,$6,$7,0*
20,1,$1+$1,$6,$7,$8,$9,0*
20,1,$1+$1,$8,$9,$2,$3,0*%
%AMFreePoly0*
4,1,14,0.354215,0.088284,0.450784,-0.008285,0.462500,-0.036569,0.462500,-0.060000,0.450784,-0.088284,0.422500,-0.100000,-0.422500,-0.100000,-0.450784,-0.088284,-0.462500,-0.060000,-0.462500,0.060000,-0.450784,0.088284,-0.422500,0.100000,0.325931,0.100000,0.354215,0.088284,0.354215,0.088284,$1*%
%AMFreePoly1*
4,1,14,0.450784,0.088284,0.462500,0.060000,0.462500,0.036569,0.450784,0.008285,0.354215,-0.088284,0.325931,-0.100000,-0.422500,-0.100000,-0.450784,-0.088284,-0.462500,-0.060000,-0.462500,0.060000,-0.450784,0.088284,-0.422500,0.100000,0.422500,0.100000,0.450784,0.088284,0.450784,0.088284,$1*%
%AMFreePoly2*
4,1,14,0.088284,0.450784,0.100000,0.422500,0.100000,-0.422500,0.088284,-0.450784,0.060000,-0.462500,-0.060000,-0.462500,-0.088284,-0.450784,-0.100000,-0.422500,-0.100000,0.325931,-0.088284,0.354215,0.008285,0.450784,0.036569,0.462500,0.060000,0.462500,0.088284,0.450784,0.088284,0.450784,$1*%
%AMFreePoly3*
4,1,14,-0.008285,0.450784,0.088284,0.354215,0.100000,0.325931,0.100000,-0.422500,0.088284,-0.450784,0.060000,-0.462500,-0.060000,-0.462500,-0.088284,-0.450784,-0.100000,-0.422500,-0.100000,0.422500,-0.088284,0.450784,-0.060000,0.462500,-0.036569,0.462500,-0.008285,0.450784,-0.008285,0.450784,$1*%
%AMFreePoly4*
4,1,14,0.450784,0.088284,0.462500,0.060000,0.462500,-0.060000,0.450784,-0.088284,0.422500,-0.100000,-0.325931,-0.100000,-0.354215,-0.088284,-0.450784,0.008285,-0.462500,0.036569,-0.462500,0.060000,-0.450784,0.088284,-0.422500,0.100000,0.422500,0.100000,0.450784,0.088284,0.450784,0.088284,$1*%
%AMFreePoly5*
4,1,14,0.450784,0.088284,0.462500,0.060000,0.462500,-0.060000,0.450784,-0.088284,0.422500,-0.100000,-0.422500,-0.100000,-0.450784,-0.088284,-0.462500,-0.060000,-0.462500,-0.036569,-0.450784,-0.008285,-0.354215,0.088284,-0.325931,0.100000,0.422500,0.100000,0.450784,0.088284,0.450784,0.088284,$1*%
%AMFreePoly6*
4,1,14,0.088284,0.450784,0.100000,0.422500,0.100000,-0.325931,0.088284,-0.354215,-0.008285,-0.450784,-0.036569,-0.462500,-0.060000,-0.462500,-0.088284,-0.450784,-0.100000,-0.422500,-0.100000,0.422500,-0.088284,0.450784,-0.060000,0.462500,0.060000,0.462500,0.088284,0.450784,0.088284,0.450784,$1*%
%AMFreePoly7*
4,1,14,0.088284,0.450784,0.100000,0.422500,0.100000,-0.422500,0.088284,-0.450784,0.060000,-0.462500,0.036569,-0.462500,0.008285,-0.450784,-0.088284,-0.354215,-0.100000,-0.325931,-0.100000,0.422500,-0.088284,0.450784,-0.060000,0.462500,0.060000,0.462500,0.088284,0.450784,0.088284,0.450784,$1*%
G04 Aperture macros list end*
%ADD10R,1.000000X0.750000*%
%ADD11R,0.500000X1.400000*%
%ADD12RoundRect,0.140000X-0.140000X-0.170000X0.140000X-0.170000X0.140000X0.170000X-0.140000X0.170000X0*%
%ADD13RoundRect,0.250000X0.475000X-0.250000X0.475000X0.250000X-0.475000X0.250000X-0.475000X-0.250000X0*%
%ADD14FreePoly0,90.000000*%
%ADD15RoundRect,0.050000X0.050000X-0.412500X0.050000X0.412500X-0.050000X0.412500X-0.050000X-0.412500X0*%
%ADD16FreePoly1,90.000000*%
%ADD17FreePoly2,90.000000*%
%ADD18RoundRect,0.050000X0.412500X-0.050000X0.412500X0.050000X-0.412500X0.050000X-0.412500X-0.050000X0*%
%ADD19FreePoly3,90.000000*%
%ADD20FreePoly4,90.000000*%
%ADD21FreePoly5,90.000000*%
%ADD22FreePoly6,90.000000*%
%ADD23FreePoly7,90.000000*%
%ADD24RoundRect,0.200000X0.200000X0.275000X-0.200000X0.275000X-0.200000X-0.275000X0.200000X-0.275000X0*%
%ADD25RoundRect,0.140000X-0.170000X0.140000X-0.170000X-0.140000X0.170000X-0.140000X0.170000X0.140000X0*%
%ADD26RoundRect,0.200000X-0.200000X-0.275000X0.200000X-0.275000X0.200000X0.275000X-0.200000X0.275000X0*%
%ADD27RoundRect,0.250000X-0.292217X0.292217X-0.292217X-0.292217X0.292217X-0.292217X0.292217X0.292217X0*%
%ADD28RoundRect,0.050000X-0.050000X0.387500X-0.050000X-0.387500X0.050000X-0.387500X0.050000X0.387500X0*%
%ADD29RoundRect,0.050000X-0.387500X0.050000X-0.387500X-0.050000X0.387500X-0.050000X0.387500X0.050000X0*%
%ADD30RoundRect,0.200000X0.275000X-0.200000X0.275000X0.200000X-0.275000X0.200000X-0.275000X-0.200000X0*%
%ADD31R,1.800000X2.500000*%
%ADD32RoundRect,0.150000X-0.650000X-0.150000X0.650000X-0.150000X0.650000X0.150000X-0.650000X0.150000X0*%
%ADD33R,2.100000X5.600000*%
%ADD34RoundRect,0.140000X0.140000X0.170000X-0.140000X0.170000X-0.140000X-0.170000X0.140000X-0.170000X0*%
%ADD35R,0.600000X1.450000*%
%ADD36R,0.300000X1.450000*%
%ADD37RoundRect,0.140000X0.170000X-0.140000X0.170000X0.140000X-0.170000X0.140000X-0.170000X-0.140000X0*%
%ADD38RoundRect,0.150000X0.587500X0.150000X-0.587500X0.150000X-0.587500X-0.150000X0.587500X-0.150000X0*%
%ADD39R,0.375000X0.500000*%
%ADD40R,0.300000X0.650000*%
%ADD41RoundRect,0.200000X-0.275000X0.200000X-0.275000X-0.200000X0.275000X-0.200000X0.275000X0.200000X0*%
%ADD42RoundRect,0.135000X0.135000X0.185000X-0.135000X0.185000X-0.135000X-0.185000X0.135000X-0.185000X0*%
%ADD43RoundRect,0.150000X0.150000X-0.825000X0.150000X0.825000X-0.150000X0.825000X-0.150000X-0.825000X0*%
%ADD44R,2.000000X1.500000*%
%ADD45R,2.000000X3.800000*%
G04 APERTURE END LIST*
D10*
%TO.C,S1*%
X332780000Y-346305000D03*
X338780000Y-346305000D03*
X332780000Y-350055000D03*
X338780000Y-350055000D03*
%TD*%
D11*
%TO.C,D35*%
X446241075Y-333891669D03*
X445401075Y-333891669D03*
X444551075Y-333891669D03*
X447091075Y-333891669D03*
%TD*%
D12*
%TO.C,C25*%
X140821418Y-333691669D03*
X141781418Y-333691669D03*
%TD*%
D13*
%TO.C,C13*%
X252560000Y-347850000D03*
X252560000Y-345950000D03*
%TD*%
D14*
%TO.C,U2*%
X212742106Y-345909169D03*
D15*
X213142106Y-345909169D03*
X213542106Y-345909169D03*
X213942106Y-345909169D03*
D16*
X214342106Y-345909169D03*
D17*
X214929606Y-345321669D03*
D18*
X214929606Y-344921669D03*
X214929606Y-344521669D03*
X214929606Y-344121669D03*
D19*
X214929606Y-343721669D03*
D20*
X214342106Y-343134169D03*
D15*
X213942106Y-343134169D03*
X213542106Y-343134169D03*
X213142106Y-343134169D03*
D21*
X212742106Y-343134169D03*
D22*
X212154606Y-343721669D03*
D18*
X212154606Y-344121669D03*
X212154606Y-344521669D03*
X212154606Y-344921669D03*
D23*
X212154606Y-345321669D03*
%TD*%
D12*
%TO.C,C37*%
X256821410Y-333691669D03*
X257781410Y-333691669D03*
%TD*%
D24*
%TO.C,R11*%
X321907346Y-355751669D03*
X320257346Y-355751669D03*
%TD*%
D11*
%TO.C,D20*%
X301241085Y-333891669D03*
X300401085Y-333891669D03*
X299551085Y-333891669D03*
X302091085Y-333891669D03*
%TD*%
%TO.C,D12*%
X223907757Y-333891669D03*
X223067757Y-333891669D03*
X222217757Y-333891669D03*
X224757757Y-333891669D03*
%TD*%
D12*
%TO.C,C43*%
X314821406Y-333691669D03*
X315781406Y-333691669D03*
%TD*%
%TO.C,C34*%
X227821412Y-333691669D03*
X228781412Y-333691669D03*
%TD*%
D25*
%TO.C,C7*%
X313212346Y-358296669D03*
X313212346Y-359256669D03*
%TD*%
D12*
%TO.C,C52*%
X401821400Y-333691669D03*
X402781400Y-333691669D03*
%TD*%
D26*
%TO.C,R2*%
X210972106Y-348201669D03*
X212622106Y-348201669D03*
%TD*%
D27*
%TO.C,U5*%
X311229846Y-354269169D03*
X311229846Y-352994169D03*
X309954846Y-354269169D03*
X309954846Y-352994169D03*
D28*
X313192346Y-350194169D03*
X312792346Y-350194169D03*
X312392346Y-350194169D03*
X311992346Y-350194169D03*
X311592346Y-350194169D03*
X311192346Y-350194169D03*
X310792346Y-350194169D03*
X310392346Y-350194169D03*
X309992346Y-350194169D03*
X309592346Y-350194169D03*
X309192346Y-350194169D03*
X308792346Y-350194169D03*
X308392346Y-350194169D03*
X307992346Y-350194169D03*
D29*
X307154846Y-351031669D03*
X307154846Y-351431669D03*
X307154846Y-351831669D03*
X307154846Y-352231669D03*
X307154846Y-352631669D03*
X307154846Y-353031669D03*
X307154846Y-353431669D03*
X307154846Y-353831669D03*
X307154846Y-354231669D03*
X307154846Y-354631669D03*
X307154846Y-355031669D03*
X307154846Y-355431669D03*
X307154846Y-355831669D03*
X307154846Y-356231669D03*
D28*
X307992346Y-357069169D03*
X308392346Y-357069169D03*
X308792346Y-357069169D03*
X309192346Y-357069169D03*
X309592346Y-357069169D03*
X309992346Y-357069169D03*
X310392346Y-357069169D03*
X310792346Y-357069169D03*
X311192346Y-357069169D03*
X311592346Y-357069169D03*
X311992346Y-357069169D03*
X312392346Y-357069169D03*
X312792346Y-357069169D03*
X313192346Y-357069169D03*
D29*
X314029846Y-356231669D03*
X314029846Y-355831669D03*
X314029846Y-355431669D03*
X314029846Y-355031669D03*
X314029846Y-354631669D03*
X314029846Y-354231669D03*
X314029846Y-353831669D03*
X314029846Y-353431669D03*
X314029846Y-353031669D03*
X314029846Y-352631669D03*
X314029846Y-352231669D03*
X314029846Y-351831669D03*
X314029846Y-351431669D03*
X314029846Y-351031669D03*
%TD*%
D11*
%TO.C,D33*%
X426907743Y-333891669D03*
X426067743Y-333891669D03*
X425217743Y-333891669D03*
X427757743Y-333891669D03*
%TD*%
D30*
%TO.C,R9*%
X216542106Y-347136669D03*
X216542106Y-345486669D03*
%TD*%
D26*
%TO.C,R3*%
X385452346Y-350246669D03*
X387102346Y-350246669D03*
%TD*%
D12*
%TO.C,C65*%
X517821392Y-333691669D03*
X518781392Y-333691669D03*
%TD*%
D11*
%TO.C,D19*%
X291574419Y-333891669D03*
X290734419Y-333891669D03*
X289884419Y-333891669D03*
X292424419Y-333891669D03*
%TD*%
D30*
%TO.C,R10*%
X391022346Y-347134169D03*
X391022346Y-345484169D03*
%TD*%
D11*
%TO.C,D48*%
X571907733Y-333891669D03*
X571067733Y-333891669D03*
X570217733Y-333891669D03*
X572757733Y-333891669D03*
%TD*%
%TO.C,D9*%
X194907759Y-333891669D03*
X194067759Y-333891669D03*
X193217759Y-333891669D03*
X195757759Y-333891669D03*
%TD*%
D31*
%TO.C,D2*%
X364250000Y-234930000D03*
X364250000Y-230930000D03*
%TD*%
D32*
%TO.C,U7*%
X316352346Y-345991669D03*
X316352346Y-347261669D03*
X316352346Y-348531669D03*
X316352346Y-349801669D03*
X323552346Y-349801669D03*
X323552346Y-348531669D03*
X323552346Y-347261669D03*
X323552346Y-345991669D03*
%TD*%
D12*
%TO.C,C55*%
X430821398Y-333691669D03*
X431781398Y-333691669D03*
%TD*%
D11*
%TO.C,D28*%
X378574413Y-333891669D03*
X377734413Y-333891669D03*
X376884413Y-333891669D03*
X379424413Y-333891669D03*
%TD*%
%TO.C,D46*%
X552574401Y-333891669D03*
X551734401Y-333891669D03*
X550884401Y-333891669D03*
X553424401Y-333891669D03*
%TD*%
D26*
%TO.C,R19*%
X529917346Y-348201669D03*
X531567346Y-348201669D03*
%TD*%
D11*
%TO.C,D10*%
X204574425Y-333891669D03*
X203734425Y-333891669D03*
X202884425Y-333891669D03*
X205424425Y-333891669D03*
%TD*%
D14*
%TO.C,U3*%
X387222346Y-345906669D03*
D15*
X387622346Y-345906669D03*
X388022346Y-345906669D03*
X388422346Y-345906669D03*
D16*
X388822346Y-345906669D03*
D17*
X389409846Y-345319169D03*
D18*
X389409846Y-344919169D03*
X389409846Y-344519169D03*
X389409846Y-344119169D03*
D19*
X389409846Y-343719169D03*
D20*
X388822346Y-343131669D03*
D15*
X388422346Y-343131669D03*
X388022346Y-343131669D03*
X387622346Y-343131669D03*
D21*
X387222346Y-343131669D03*
D22*
X386634846Y-343719169D03*
D18*
X386634846Y-344119169D03*
X386634846Y-344519169D03*
X386634846Y-344919169D03*
D23*
X386634846Y-345319169D03*
%TD*%
D12*
%TO.C,C11*%
X209816357Y-346511669D03*
X210776357Y-346511669D03*
%TD*%
%TO.C,C33*%
X218154746Y-333691669D03*
X219114746Y-333691669D03*
%TD*%
%TO.C,C62*%
X488821394Y-333691669D03*
X489781394Y-333691669D03*
%TD*%
D11*
%TO.C,D25*%
X349574415Y-333891669D03*
X348734415Y-333891669D03*
X347884415Y-333891669D03*
X350424415Y-333891669D03*
%TD*%
D33*
%TO.C,Y1*%
X291762346Y-350811669D03*
X291762346Y-359811669D03*
%TD*%
D12*
%TO.C,C59*%
X459821396Y-333691669D03*
X460781396Y-333691669D03*
%TD*%
%TO.C,C72*%
X585488084Y-333691669D03*
X586448084Y-333691669D03*
%TD*%
D11*
%TO.C,D3*%
X136907763Y-333891669D03*
X136067763Y-333891669D03*
X135217763Y-333891669D03*
X137757763Y-333891669D03*
%TD*%
D12*
%TO.C,C29*%
X179488082Y-333691669D03*
X180448082Y-333691669D03*
%TD*%
%TO.C,C68*%
X546821390Y-333691669D03*
X547781390Y-333691669D03*
%TD*%
D11*
%TO.C,D18*%
X281907753Y-333891669D03*
X281067753Y-333891669D03*
X280217753Y-333891669D03*
X282757753Y-333891669D03*
%TD*%
%TO.C,D16*%
X262574421Y-333891669D03*
X261734421Y-333891669D03*
X260884421Y-333891669D03*
X263424421Y-333891669D03*
%TD*%
D12*
%TO.C,C5*%
X317294722Y-355001669D03*
X318254722Y-355001669D03*
%TD*%
D30*
%TO.C,R22*%
X535487346Y-347136669D03*
X535487346Y-345486669D03*
%TD*%
D12*
%TO.C,C12*%
X384284722Y-346509169D03*
X385244722Y-346509169D03*
%TD*%
D34*
%TO.C,C2*%
X303202346Y-355141669D03*
X302242346Y-355141669D03*
%TD*%
D14*
%TO.C,U8*%
X531687346Y-345909169D03*
D15*
X532087346Y-345909169D03*
X532487346Y-345909169D03*
X532887346Y-345909169D03*
D16*
X533287346Y-345909169D03*
D17*
X533874846Y-345321669D03*
D18*
X533874846Y-344921669D03*
X533874846Y-344521669D03*
X533874846Y-344121669D03*
D19*
X533874846Y-343721669D03*
D20*
X533287346Y-343134169D03*
D15*
X532887346Y-343134169D03*
X532487346Y-343134169D03*
X532087346Y-343134169D03*
D21*
X531687346Y-343134169D03*
D22*
X531099846Y-343721669D03*
D18*
X531099846Y-344121669D03*
X531099846Y-344521669D03*
X531099846Y-344921669D03*
D23*
X531099846Y-345321669D03*
%TD*%
D11*
%TO.C,D32*%
X417241077Y-333891669D03*
X416401077Y-333891669D03*
X415551077Y-333891669D03*
X418091077Y-333891669D03*
%TD*%
D25*
%TO.C,C8*%
X309592346Y-358309450D03*
X309592346Y-359269450D03*
%TD*%
D12*
%TO.C,C42*%
X305154740Y-333691669D03*
X306114740Y-333691669D03*
%TD*%
D11*
%TO.C,D45*%
X542907735Y-333891669D03*
X542067735Y-333891669D03*
X541217735Y-333891669D03*
X543757735Y-333891669D03*
%TD*%
D35*
%TO.C,J1*%
X376571096Y-236235000D03*
X375771096Y-236235000D03*
D36*
X374571096Y-236235000D03*
X373571096Y-236235000D03*
X373071096Y-236235000D03*
X372071096Y-236235000D03*
D35*
X370871096Y-236235000D03*
X370071096Y-236235000D03*
X370071096Y-236235000D03*
X370871096Y-236235000D03*
D36*
X371571096Y-236235000D03*
X372571096Y-236235000D03*
X374071096Y-236235000D03*
X375071096Y-236235000D03*
D35*
X375771096Y-236235000D03*
X376571096Y-236235000D03*
%TD*%
D11*
%TO.C,D17*%
X272241087Y-333891669D03*
X271401087Y-333891669D03*
X270551087Y-333891669D03*
X273091087Y-333891669D03*
%TD*%
D12*
%TO.C,C54*%
X421154732Y-333691669D03*
X422114732Y-333691669D03*
%TD*%
%TO.C,C70*%
X566154722Y-333691669D03*
X567114722Y-333691669D03*
%TD*%
D31*
%TO.C,D1*%
X353280000Y-234930000D03*
X353280000Y-230930000D03*
%TD*%
D25*
%TO.C,C6*%
X315342346Y-357611669D03*
X315342346Y-358571669D03*
%TD*%
%TO.C,C20*%
X326062346Y-345981669D03*
X326062346Y-346941669D03*
%TD*%
D12*
%TO.C,C71*%
X575834722Y-333691669D03*
X576794722Y-333691669D03*
%TD*%
%TO.C,C30*%
X189154748Y-333691669D03*
X190114748Y-333691669D03*
%TD*%
%TO.C,C36*%
X247154744Y-333691669D03*
X248114744Y-333691669D03*
%TD*%
D11*
%TO.C,D34*%
X436574409Y-333891669D03*
X435734409Y-333891669D03*
X434884409Y-333891669D03*
X437424409Y-333891669D03*
%TD*%
%TO.C,D26*%
X359241081Y-333891669D03*
X358401081Y-333891669D03*
X357551081Y-333891669D03*
X360091081Y-333891669D03*
%TD*%
D37*
%TO.C,C18*%
X215072106Y-348671669D03*
X215072106Y-347711669D03*
%TD*%
D12*
%TO.C,C40*%
X285821408Y-333691669D03*
X286781408Y-333691669D03*
%TD*%
D11*
%TO.C,D8*%
X185241093Y-333891669D03*
X184401093Y-333891669D03*
X183551093Y-333891669D03*
X186091093Y-333891669D03*
%TD*%
D12*
%TO.C,C39*%
X276154742Y-333691669D03*
X277114742Y-333691669D03*
%TD*%
D11*
%TO.C,D30*%
X397907745Y-333891669D03*
X397067745Y-333891669D03*
X396217745Y-333891669D03*
X398757745Y-333891669D03*
%TD*%
%TO.C,D23*%
X330241083Y-333891669D03*
X329401083Y-333891669D03*
X328551083Y-333891669D03*
X331091083Y-333891669D03*
%TD*%
D24*
%TO.C,R17*%
X327657346Y-349411669D03*
X326007346Y-349411669D03*
%TD*%
D38*
%TO.C,Q1*%
X305862346Y-347141669D03*
X305862346Y-345241669D03*
X303987346Y-346191669D03*
%TD*%
D39*
%TO.C,U4*%
X344567500Y-239530000D03*
D40*
X344030000Y-239455000D03*
D39*
X343492500Y-239530000D03*
X343492500Y-241230000D03*
D40*
X344030000Y-241305000D03*
D39*
X344567500Y-241230000D03*
%TD*%
D37*
%TO.C,C23*%
X296252346Y-353611669D03*
X296252346Y-352651669D03*
%TD*%
D11*
%TO.C,D31*%
X407574411Y-333891669D03*
X406734411Y-333891669D03*
X405884411Y-333891669D03*
X408424411Y-333891669D03*
%TD*%
D12*
%TO.C,C38*%
X266488076Y-333691669D03*
X267448076Y-333691669D03*
%TD*%
%TO.C,C21*%
X528714722Y-346511669D03*
X529674722Y-346511669D03*
%TD*%
%TO.C,C15*%
X316882346Y-356731669D03*
X317842346Y-356731669D03*
%TD*%
%TO.C,C69*%
X556488056Y-333691669D03*
X557448056Y-333691669D03*
%TD*%
D11*
%TO.C,D44*%
X533241069Y-333891669D03*
X532401069Y-333891669D03*
X531551069Y-333891669D03*
X534091069Y-333891669D03*
%TD*%
D12*
%TO.C,C56*%
X440488064Y-333691669D03*
X441448064Y-333691669D03*
%TD*%
%TO.C,C51*%
X392154734Y-333691669D03*
X393114734Y-333691669D03*
%TD*%
D11*
%TO.C,D11*%
X214241091Y-333891669D03*
X213401091Y-333891669D03*
X212551091Y-333891669D03*
X215091091Y-333891669D03*
%TD*%
D12*
%TO.C,C63*%
X498488060Y-333691669D03*
X499448060Y-333691669D03*
%TD*%
%TO.C,C41*%
X295488074Y-333691669D03*
X296448074Y-333691669D03*
%TD*%
D11*
%TO.C,D41*%
X504241071Y-333891669D03*
X503401071Y-333891669D03*
X502551071Y-333891669D03*
X505091071Y-333891669D03*
%TD*%
D12*
%TO.C,C48*%
X363154736Y-333691669D03*
X364114736Y-333691669D03*
%TD*%
D35*
%TO.C,J6*%
X579571096Y-236235000D03*
X578771096Y-236235000D03*
D36*
X577571096Y-236235000D03*
X576571096Y-236235000D03*
X576071096Y-236235000D03*
X575071096Y-236235000D03*
D35*
X573871096Y-236235000D03*
X573071096Y-236235000D03*
X573071096Y-236235000D03*
X573871096Y-236235000D03*
D36*
X574571096Y-236235000D03*
X575571096Y-236235000D03*
X577071096Y-236235000D03*
X578071096Y-236235000D03*
D35*
X578771096Y-236235000D03*
X579571096Y-236235000D03*
%TD*%
D41*
%TO.C,R5*%
X346446484Y-239525000D03*
X346446484Y-241175000D03*
%TD*%
D11*
%TO.C,D5*%
X156241095Y-333891669D03*
X155401095Y-333891669D03*
X154551095Y-333891669D03*
X157091095Y-333891669D03*
%TD*%
%TO.C,D13*%
X233574423Y-333891669D03*
X232734423Y-333891669D03*
X231884423Y-333891669D03*
X234424423Y-333891669D03*
%TD*%
D26*
%TO.C,R4*%
X385452346Y-348199169D03*
X387102346Y-348199169D03*
%TD*%
D11*
%TO.C,D14*%
X243241089Y-333891669D03*
X242401089Y-333891669D03*
X241551089Y-333891669D03*
X244091089Y-333891669D03*
%TD*%
D24*
%TO.C,R13*%
X321897346Y-357441669D03*
X320247346Y-357441669D03*
%TD*%
D12*
%TO.C,C26*%
X150488084Y-333691669D03*
X151448084Y-333691669D03*
%TD*%
D13*
%TO.C,C14*%
X266288745Y-347470000D03*
X266288745Y-345570000D03*
%TD*%
D12*
%TO.C,C49*%
X372821402Y-333691669D03*
X373781402Y-333691669D03*
%TD*%
D11*
%TO.C,D37*%
X465574407Y-333891669D03*
X464734407Y-333891669D03*
X463884407Y-333891669D03*
X466424407Y-333891669D03*
%TD*%
D34*
%TO.C,C3*%
X279894722Y-351251669D03*
X278934722Y-351251669D03*
%TD*%
D11*
%TO.C,D22*%
X320574417Y-333891669D03*
X319734417Y-333891669D03*
X318884417Y-333891669D03*
X321424417Y-333891669D03*
%TD*%
%TO.C,D6*%
X165907761Y-333891669D03*
X165067761Y-333891669D03*
X164217761Y-333891669D03*
X166757761Y-333891669D03*
%TD*%
D25*
%TO.C,C24*%
X296232346Y-357098931D03*
X296232346Y-358058931D03*
%TD*%
D11*
%TO.C,D40*%
X494574405Y-333891669D03*
X493734405Y-333891669D03*
X492884405Y-333891669D03*
X495424405Y-333891669D03*
%TD*%
D12*
%TO.C,C31*%
X198821414Y-333691669D03*
X199781414Y-333691669D03*
%TD*%
D35*
%TO.C,J2*%
X347571096Y-236235000D03*
X346771096Y-236235000D03*
D36*
X345571096Y-236235000D03*
X344571096Y-236235000D03*
X344071096Y-236235000D03*
X343071096Y-236235000D03*
D35*
X341871096Y-236235000D03*
X341071096Y-236235000D03*
X341071096Y-236235000D03*
X341871096Y-236235000D03*
D36*
X342571096Y-236235000D03*
X343571096Y-236235000D03*
X345071096Y-236235000D03*
X346071096Y-236235000D03*
D35*
X346771096Y-236235000D03*
X347571096Y-236235000D03*
%TD*%
D25*
%TO.C,C17*%
X347870000Y-241630000D03*
X347870000Y-242590000D03*
%TD*%
D11*
%TO.C,D15*%
X252907755Y-333891669D03*
X252067755Y-333891669D03*
X251217755Y-333891669D03*
X253757755Y-333891669D03*
%TD*%
D41*
%TO.C,R7*%
X374765208Y-239525000D03*
X374765208Y-241175000D03*
%TD*%
D12*
%TO.C,C60*%
X469488062Y-333691669D03*
X470448062Y-333691669D03*
%TD*%
D37*
%TO.C,C22*%
X534017346Y-348671669D03*
X534017346Y-347711669D03*
%TD*%
D12*
%TO.C,C47*%
X353488070Y-333691669D03*
X354448070Y-333691669D03*
%TD*%
D11*
%TO.C,D7*%
X175574427Y-333891669D03*
X174734427Y-333891669D03*
X173884427Y-333891669D03*
X176424427Y-333891669D03*
%TD*%
%TO.C,D36*%
X455907741Y-333891669D03*
X455067741Y-333891669D03*
X454217741Y-333891669D03*
X456757741Y-333891669D03*
%TD*%
D26*
%TO.C,R1*%
X210972106Y-350251669D03*
X212622106Y-350251669D03*
%TD*%
D42*
%TO.C,R23*%
X299042346Y-354551669D03*
X298022346Y-354551669D03*
%TD*%
D11*
%TO.C,D21*%
X310907751Y-333891669D03*
X310067751Y-333891669D03*
X309217751Y-333891669D03*
X311757751Y-333891669D03*
%TD*%
D37*
%TO.C,C10*%
X313982346Y-348721669D03*
X313982346Y-347761669D03*
%TD*%
D26*
%TO.C,R18*%
X529917346Y-350249169D03*
X531567346Y-350249169D03*
%TD*%
D12*
%TO.C,C45*%
X334154738Y-333691669D03*
X335114738Y-333691669D03*
%TD*%
D11*
%TO.C,D47*%
X562241067Y-333891669D03*
X561401067Y-333891669D03*
X560551067Y-333891669D03*
X563091067Y-333891669D03*
%TD*%
D12*
%TO.C,C58*%
X450154730Y-333691669D03*
X451114730Y-333691669D03*
%TD*%
D11*
%TO.C,D42*%
X513907737Y-333891669D03*
X513067737Y-333891669D03*
X512217737Y-333891669D03*
X514757737Y-333891669D03*
%TD*%
D12*
%TO.C,C28*%
X169821416Y-333691669D03*
X170781416Y-333691669D03*
%TD*%
D26*
%TO.C,R12*%
X364155000Y-238600000D03*
X365805000Y-238600000D03*
%TD*%
D43*
%TO.C,U6*%
X279897346Y-358266669D03*
X281167346Y-358266669D03*
X282437346Y-358266669D03*
X283707346Y-358266669D03*
X283707346Y-353316669D03*
X282437346Y-353316669D03*
X281167346Y-353316669D03*
X279897346Y-353316669D03*
%TD*%
D11*
%TO.C,D43*%
X523574403Y-333891669D03*
X522734403Y-333891669D03*
X521884403Y-333891669D03*
X524424403Y-333891669D03*
%TD*%
D12*
%TO.C,C46*%
X343821404Y-333691669D03*
X344781404Y-333691669D03*
%TD*%
D26*
%TO.C,R20*%
X326007346Y-351371669D03*
X327657346Y-351371669D03*
%TD*%
D12*
%TO.C,C53*%
X411488066Y-333691669D03*
X412448066Y-333691669D03*
%TD*%
%TO.C,C16*%
X316884722Y-357961669D03*
X317844722Y-357961669D03*
%TD*%
D44*
%TO.C,U1*%
X256190000Y-343210000D03*
X256190000Y-345510000D03*
D45*
X262490000Y-345510000D03*
D44*
X256190000Y-347810000D03*
%TD*%
D35*
%TO.C,J5*%
X144571096Y-236235000D03*
X143771096Y-236235000D03*
D36*
X142571096Y-236235000D03*
X141571096Y-236235000D03*
X141071096Y-236235000D03*
X140071096Y-236235000D03*
D35*
X138871096Y-236235000D03*
X138071096Y-236235000D03*
X138071096Y-236235000D03*
X138871096Y-236235000D03*
D36*
X139571096Y-236235000D03*
X140571096Y-236235000D03*
X142071096Y-236235000D03*
X143071096Y-236235000D03*
D35*
X143771096Y-236235000D03*
X144571096Y-236235000D03*
%TD*%
D26*
%TO.C,R21*%
X301217346Y-357251669D03*
X302867346Y-357251669D03*
%TD*%
D11*
%TO.C,D39*%
X484907739Y-333891669D03*
X484067739Y-333891669D03*
X483217739Y-333891669D03*
X485757739Y-333891669D03*
%TD*%
D12*
%TO.C,C27*%
X160154750Y-333691669D03*
X161114750Y-333691669D03*
%TD*%
%TO.C,C44*%
X324488072Y-333691669D03*
X325448072Y-333691669D03*
%TD*%
%TO.C,C61*%
X479154728Y-333691669D03*
X480114728Y-333691669D03*
%TD*%
D30*
%TO.C,R16*%
X301874846Y-346196669D03*
X301874846Y-344546669D03*
%TD*%
D12*
%TO.C,C66*%
X527488058Y-333691669D03*
X528448058Y-333691669D03*
%TD*%
%TO.C,C67*%
X537154724Y-333691669D03*
X538114724Y-333691669D03*
%TD*%
%TO.C,C4*%
X316852346Y-353868335D03*
X317812346Y-353868335D03*
%TD*%
D37*
%TO.C,C73*%
X308970000Y-348130000D03*
X308970000Y-347170000D03*
%TD*%
D12*
%TO.C,C32*%
X208488080Y-333691669D03*
X209448080Y-333691669D03*
%TD*%
D11*
%TO.C,D24*%
X339907749Y-333891669D03*
X339067749Y-333891669D03*
X338217749Y-333891669D03*
X340757749Y-333891669D03*
%TD*%
%TO.C,D4*%
X146574429Y-333891669D03*
X145734429Y-333891669D03*
X144884429Y-333891669D03*
X147424429Y-333891669D03*
%TD*%
D12*
%TO.C,C1*%
X316832346Y-352801669D03*
X317792346Y-352801669D03*
%TD*%
%TO.C,C64*%
X508154726Y-333691669D03*
X509114726Y-333691669D03*
%TD*%
D11*
%TO.C,D49*%
X581574429Y-333891669D03*
X580734429Y-333891669D03*
X579884429Y-333891669D03*
X582424429Y-333891669D03*
%TD*%
D34*
%TO.C,C9*%
X303212346Y-354031669D03*
X302252346Y-354031669D03*
%TD*%
D37*
%TO.C,C19*%
X389552346Y-348669169D03*
X389552346Y-347709169D03*
%TD*%
D11*
%TO.C,D27*%
X368907747Y-333891669D03*
X368067747Y-333891669D03*
X367217747Y-333891669D03*
X369757747Y-333891669D03*
%TD*%
D12*
%TO.C,C35*%
X237488078Y-333691669D03*
X238448078Y-333691669D03*
%TD*%
D11*
%TO.C,D38*%
X475241073Y-333891669D03*
X474401073Y-333891669D03*
X473551073Y-333891669D03*
X476091073Y-333891669D03*
%TD*%
%TO.C,D29*%
X388241079Y-333891669D03*
X387401079Y-333891669D03*
X386551079Y-333891669D03*
X389091079Y-333891669D03*
%TD*%
D26*
%TO.C,R15*%
X305859846Y-343191669D03*
X307509846Y-343191669D03*
%TD*%
%TO.C,R14*%
X366485000Y-240490000D03*
X368135000Y-240490000D03*
%TD*%
D41*
%TO.C,R6*%
X341670865Y-239525000D03*
X341670865Y-241175000D03*
%TD*%
D12*
%TO.C,C50*%
X382488068Y-333691669D03*
X383448068Y-333691669D03*
%TD*%
D41*
%TO.C,R8*%
X371369359Y-239525000D03*
X371369359Y-241175000D03*
%TD*%
M02*
