M48
; DRILL file {KiCad (6.0.5-0)} date Wednesday, June 15, 2022 at 01:26:12 AM
; FORMAT={-:-/ absolute / inch / decimal}
; #@! TF.CreationDate,2022-06-15T01:26:12-05:00
; #@! TF.GenerationSoftware,Kicad,Pcbnew,(6.0.5-0)
; #@! TF.FileFunction,Plated,1,2,PTH
FMAT,2
INCH
; #@! TA.AperFunction,Plated,PTH,ViaDrill
T1C0.0118
; #@! TA.AperFunction,Plated,PTH,ViaDrill
T2C0.0138
; #@! TA.AperFunction,Plated,PTH,ComponentDrill
T3C0.0138
; #@! TA.AperFunction,Plated,PTH,ComponentDrill
T4C0.0236
; #@! TA.AperFunction,Plated,PTH,ComponentDrill
T5C0.0354
; #@! TA.AperFunction,Plated,PTH,ComponentDrill
T6C0.0394
%
G90
G05
T1
X6.8649Y-12.202
X6.8751Y-9.6146
X7.1736Y-12.0929
X7.1961Y-12.1091
X7.2181Y-12.128
X7.2425Y-12.1484
X7.265Y-12.1657
X7.2761Y-11.5805
X7.2878Y-12.1819
X7.4149Y-11.6925
X7.4164Y-11.2212
X8.0168Y-9.6146
X8.5581Y-11.2212
X9.1585Y-9.6146
X9.6999Y-11.2212
X9.8441Y-11.7512
X9.8827Y-11.7524
X9.924Y-11.7528
X9.9626Y-11.7524
X10.0024Y-11.7528
X10.0457Y-11.7516
X10.2602Y-11.7516
X10.3003Y-9.6146
X10.3925Y-11.7429
X10.5276Y-11.7524
X10.5697Y-11.7528
X10.6079Y-11.7524
X10.6465Y-11.7524
X10.8416Y-11.2212
X10.9256Y-12.6992
X10.9366Y-12.6728
X10.9488Y-12.6465
X11.0228Y-11.8933
X11.0236Y-11.9264
X11.024Y-11.9602
X11.442Y-9.6146
X11.9833Y-11.2212
X12.5837Y-9.6146
X13.1251Y-11.2212
X13.457Y-12.0441
X13.506Y-12.0632
X13.5731Y-12.2126
X13.6074Y-12.2118
X13.6432Y-12.213
X13.7254Y-9.6146
X13.8253Y-12.306
X13.9133Y-12.4394
X13.9452Y-12.4461
X13.9491Y-12.6587
X13.9972Y-12.5217
X14.0011Y-12.2909
X14.0138Y-12.061
X14.0164Y-12.5524
X14.0472Y-11.9575
X14.0806Y-11.9732
X14.0956Y-12.0457
X14.1074Y-12.0674
X14.1141Y-12.0106
X14.12Y-12.511
X14.1601Y-12.3185
X14.2668Y-11.2212
X14.2968Y-12.2543
X14.4413Y-12.6181
X14.4638Y-12.6457
X14.4949Y-12.6673
X14.5995Y-12.2756
X14.6003Y-12.248
X14.8672Y-9.6146
X15.4085Y-11.2212
X15.4787Y-7.2723
X15.4975Y-7.3862
X15.5582Y-7.3956
X16.0089Y-9.6146
X16.4646Y-7.8858
X16.5503Y-11.2212
X16.7724Y-11.8106
X16.8067Y-11.8102
X16.8441Y-11.8114
X16.8827Y-11.811
X16.9287Y-11.8114
X16.9634Y-11.7913
X17.0424Y-12.2122
X17.1295Y-11.8028
X17.1506Y-9.6146
X17.2445Y-11.7823
X17.2842Y-12.1913
X17.2843Y-11.8118
X17.3232Y-11.811
X17.3622Y-11.8114
X17.4008Y-11.811
X17.692Y-11.2212
X18.2924Y-9.6146
X18.8337Y-11.2212
X19.4341Y-9.6146
X19.9754Y-11.2212
X19.9862Y-7.8823
X20.5618Y-7.8618
X20.5758Y-9.6146
X21.0728Y-7.848
X21.1172Y-11.2212
X21.7176Y-9.6146
X22.2589Y-11.2212
X22.5496Y-11.8248
X22.598Y-11.8248
X22.6382Y-11.8248
X22.6768Y-11.8248
X22.7858Y-11.7839
X22.8593Y-9.6146
X22.902Y-11.7752
X22.9457Y-11.7862
X22.9827Y-11.8004
X23.4006Y-11.2212
X24.001Y-9.6146
X24.0161Y-12.4563
X24.0531Y-12.4744
X24.0803Y-12.5055
X24.1094Y-12.5508
X24.1413Y-12.585
X24.1756Y-12.6012
X24.2083Y-12.6264
X24.5424Y-11.2212
X24.826Y-11.3917
X24.9425Y-11.6134
X24.9795Y-12.2933
X25.1507Y-12.4571
T2
X6.7386Y-11.5087
X6.7545Y-12.0843
X6.7561Y-12.0445
X6.7769Y-12.0638
X6.792Y-11.9854
X6.8122Y-7.8622
X6.918Y-11.8594
X7.1669Y-11.5543
X10.0685Y-11.9854
X10.3744Y-12.0709
X11.2199Y-11.5758
X11.5969Y-11.3787
X11.9799Y-11.5758
X12.3606Y-11.3776
X12.7399Y-11.5758
X12.7883Y-12.1717
X12.8723Y-12.5264
X12.922Y-12.1724
X12.9223Y-12.5264
X12.9716Y-12.5264
X13.022Y-12.526
X13.1205Y-11.3811
X13.5Y-11.5758
X13.5149Y-12.4791
X13.516Y-12.1906
X13.5402Y-11.9079
X13.7097Y-12.3256
X13.7101Y-12.2815
X13.7346Y-12.4988
X13.8094Y-12.8421
X13.8231Y-12.7535
X13.8231Y-12.7929
X13.8874Y-11.374
X13.9015Y-12.2225
X13.9462Y-11.975
X14.0412Y-12.5302
X14.1838Y-12.5302
X14.2141Y-11.9968
X14.26Y-11.5758
X14.2676Y-12.5039
X14.3156Y-12.5791
X14.3688Y-12.1154
X14.4032Y-12.2335
X14.4032Y-12.2756
X14.4043Y-12.4504
X14.4072Y-12.3968
X14.4134Y-12.3185
X14.6531Y-11.3728
X14.6893Y-12.0394
X14.7247Y-7.5566
X14.765Y-12.4161
X14.8299Y-12.335
X14.8719Y-7.5563
X15.02Y-11.5758
X15.0213Y-7.7161
X15.2839Y-12.1606
X15.3287Y-7.8622
X15.4118Y-11.3752
X15.4628Y-7.5856
X15.5252Y-7.6587
X15.5479Y-7.6132
X15.5705Y-7.6583
X15.618Y-7.5669
X15.78Y-11.5758
X15.9617Y-7.6137
X16.0007Y-7.3161
X16.1681Y-11.3728
X16.3842Y-7.5618
X16.54Y-11.5758
X16.6629Y-7.3
X16.9385Y-11.9846
X17.2472Y-12.0634
X20.3256Y-7.6157
X20.8961Y-7.615
X21.4661Y-7.6157
X22.6269Y-11.9854
X22.9352Y-12.0709
X24.9303Y-11.5433
X25.0039Y-11.5921
X25.19Y-12.2205
X25.2097Y-12.2008
T3
X14.0304Y-12.2159
X14.0304Y-12.2661
X14.0304Y-12.3163
X14.0806Y-12.2159
X14.0806Y-12.2661
X14.0806Y-12.3163
X14.1308Y-12.2159
X14.1308Y-12.2661
X14.1308Y-12.3163
T6
X13.5355Y-12.5878
X13.6355Y-12.5878
X13.7355Y-12.5878
T4
G00X15.357Y-7.1405
M15
G01X15.357Y-7.1169
M16
G05
G00X15.357Y-7.3149
M15
G01X15.357Y-7.2716
M16
G05
G00X15.6972Y-7.1405
M15
G01X15.6972Y-7.1169
M16
G05
G00X15.6972Y-7.3149
M15
G01X15.6972Y-7.2716
M16
G05
G00X16.2298Y-7.1405
M15
G01X16.2298Y-7.1169
M16
G05
G00X16.2298Y-7.3149
M15
G01X16.2298Y-7.2716
M16
G05
G00X16.57Y-7.1405
M15
G01X16.57Y-7.1169
M16
G05
G00X16.57Y-7.3149
M15
G01X16.57Y-7.2716
M16
G05
T5
G00X6.4273Y-11.8575
M15
G01X6.3801Y-11.8575
M16
G05
G00X6.4273Y-12.4283
M15
G01X6.3801Y-12.4283
M16
G05
G00X6.6738Y-11.8575
M15
G01X6.6029Y-11.8575
M16
G05
G00X6.6738Y-12.4283
M15
G01X6.6029Y-12.4283
M16
G05
G00X25.2805Y-12.0142
M15
G01X25.3514Y-12.0142
M16
G05
G00X25.2805Y-12.585
M15
G01X25.3514Y-12.585
M16
G05
G00X25.527Y-12.0142
M15
G01X25.5742Y-12.0142
M16
G05
G00X25.527Y-12.585
M15
G01X25.5742Y-12.585
M16
G05
T0
M30
