M48
; DRILL file {KiCad (6.0.5-0)} date Sunday, November 13, 2022 at 05:01:49 PM
; FORMAT={-:-/ absolute / inch / decimal}
; #@! TF.CreationDate,2022-11-13T17:01:49-06:00
; #@! TF.GenerationSoftware,Kicad,Pcbnew,(6.0.5-0)
; #@! TF.FileFunction,Plated,1,2,PTH
FMAT,2
INCH
; #@! TA.AperFunction,Plated,PTH,ViaDrill
T1C0.0118
; #@! TA.AperFunction,Plated,PTH,ViaDrill
T2C0.0138
; #@! TA.AperFunction,Plated,PTH,ComponentDrill
T3C0.0138
; #@! TA.AperFunction,Plated,PTH,ComponentDrill
T4C0.0236
; #@! TA.AperFunction,Plated,PTH,ViaDrill
T5C0.0276
; #@! TA.AperFunction,Plated,PTH,ComponentDrill
T6C0.0394
; #@! TA.AperFunction,Plated,PTH,ComponentDrill
T7C0.1260
%
G90
G05
T1
X5.0225Y-11.2709
X5.4235Y-13.2369
X5.5213Y-9.3583
X5.5623Y-13.3489
X5.5638Y-12.8776
X5.6319Y-9.3449
X6.1642Y-11.2709
X6.7056Y-12.8776
X7.3059Y-11.2709
X7.8473Y-12.8776
X7.8815Y-13.8067
X7.8823Y-13.6984
X7.9915Y-13.4075
X8.0301Y-13.4087
X8.0657Y-13.7709
X8.0714Y-13.4091
X8.11Y-13.4087
X8.1498Y-13.4091
X8.1931Y-13.4079
X8.3677Y-13.748
X8.4077Y-13.4079
X8.4477Y-11.2709
X8.5399Y-13.3993
X8.675Y-13.4087
X8.7171Y-13.4091
X8.7553Y-13.4087
X8.7939Y-13.4087
X8.989Y-12.8776
X9.5894Y-11.2709
X10.1308Y-12.8776
X10.7311Y-11.2709
X11.2725Y-12.8776
X11.6044Y-13.7005
X11.6534Y-13.7196
X11.8729Y-11.2709
X11.9727Y-13.9623
X12.1485Y-13.9473
X12.243Y-13.702
X12.2548Y-13.7237
X12.3076Y-13.9749
X12.4142Y-12.8776
X12.4442Y-13.9107
X12.7469Y-13.932
X12.7477Y-13.9044
X13.0146Y-11.2709
X13.3654Y-9.6016
X13.5559Y-12.8776
X14.1563Y-11.2709
X14.4217Y-9.5252
X14.6977Y-12.8776
X14.9199Y-13.467
X14.9541Y-13.4666
X14.9915Y-13.4678
X15.0301Y-13.4674
X15.0762Y-13.4678
X15.1108Y-13.4477
X15.1899Y-13.8686
X15.277Y-13.4591
X15.2981Y-11.2709
X15.3919Y-13.4386
X15.4316Y-13.8477
X15.4317Y-13.4682
X15.4707Y-13.4674
X15.5096Y-13.4678
X15.5482Y-13.4674
X15.8394Y-12.8776
X16.4398Y-11.2709
X16.9811Y-12.8776
X17.5815Y-11.2709
X18.1229Y-12.8776
X18.7233Y-11.2709
X19.2646Y-12.8776
X19.865Y-11.2709
X20.4063Y-12.8776
X20.697Y-13.4812
X20.7455Y-13.4812
X20.7856Y-13.4812
X20.8242Y-13.4812
X20.9063Y-13.877
X20.9333Y-13.4402
X21.0067Y-11.2709
X21.0102Y-13.8732
X21.0494Y-13.4316
X21.0931Y-13.4426
X21.1301Y-13.4568
X21.5481Y-12.8776
X22.1485Y-11.2709
X22.6406Y-9.4858
X22.6898Y-12.8776
X22.7193Y-9.2028
X22.7291Y-9.2535
X22.8386Y-9.5756
X23.3756Y-13.1185
X23.3827Y-13.0839
T2
X4.886Y-13.165
X5.0654Y-13.5158
X5.3144Y-13.2107
X5.5476Y-9.3858
X5.6555Y-9.4925
X6.2349Y-9.4644
X8.2159Y-13.6418
X8.5218Y-13.7272
X9.7504Y-13.6949
X9.8697Y-13.6205
X10.5665Y-13.6055
X10.9357Y-13.828
X11.0198Y-14.1827
X11.0694Y-13.8288
X11.0698Y-14.1827
X11.119Y-14.1827
X11.1694Y-14.1823
X11.6623Y-14.1355
X11.6635Y-13.8469
X11.6876Y-13.5642
X11.8572Y-13.982
X11.8576Y-13.9379
X11.882Y-14.1552
X12.0489Y-13.8789
X12.1299Y-13.6787
X12.1887Y-14.1866
X12.3312Y-14.1866
X12.3615Y-13.6532
X12.4151Y-14.1602
X12.5162Y-13.7717
X12.5506Y-13.8898
X12.5506Y-13.932
X12.5518Y-14.1068
X12.5546Y-14.0532
X12.5608Y-13.9749
X12.7504Y-14.0697
X12.8193Y-14.0
X12.8367Y-13.6957
X13.3787Y-9.3823
X13.3976Y-9.5024
X13.4313Y-13.817
X13.5544Y-9.3497
X13.572Y-9.3988
X13.602Y-9.5756
X13.7366Y-9.5067
X14.5031Y-9.5224
X14.5374Y-9.3701
X14.8272Y-9.5098
X14.8386Y-9.3634
X15.086Y-13.641
X15.3946Y-13.7198
X16.6713Y-9.589
X20.7744Y-13.6418
X21.0826Y-13.7272
X22.8307Y-9.4063
X23.3031Y-13.0106
X23.3791Y-12.9161
T3
X12.1778Y-13.8723
X12.1778Y-13.9225
X12.1778Y-13.9727
X12.228Y-13.8723
X12.228Y-13.9225
X12.228Y-13.9727
X12.2782Y-13.8723
X12.2782Y-13.9225
X12.2782Y-13.9727
T5
X9.3674Y-13.2322
X9.7443Y-13.0351
X10.1274Y-13.2322
X10.5081Y-13.0339
X10.8874Y-13.2322
X11.2679Y-13.0375
X11.6474Y-13.2322
X12.0348Y-13.0304
X12.4074Y-13.2322
X12.8006Y-13.0292
X13.1674Y-13.2322
X13.5592Y-13.0316
X13.9274Y-13.2322
X14.3155Y-13.0292
X14.6874Y-13.2322
T6
X11.683Y-14.2442
X11.783Y-14.2442
X11.883Y-14.2442
T7
X6.7056Y-9.1646
X6.7056Y-14.2146
X10.6823Y-9.1646
X10.6823Y-14.2146
X17.5724Y-9.1646
X17.5724Y-14.2146
X21.5481Y-9.1646
X21.5481Y-14.2146
T4
G00X5.3937Y-9.1118
M15
G01X5.3937Y-9.0882
M16
G05
G00X5.3937Y-9.2862
M15
G01X5.3937Y-9.2429
M16
G05
G00X5.7339Y-9.1118
M15
G01X5.7339Y-9.0882
M16
G05
G00X5.7339Y-9.2862
M15
G01X5.7339Y-9.2429
M16
G05
G00X13.3859Y-9.1118
M15
G01X13.3859Y-9.0882
M16
G05
G00X13.3859Y-9.2862
M15
G01X13.3859Y-9.2429
M16
G05
G00X13.726Y-9.1118
M15
G01X13.726Y-9.0882
M16
G05
G00X13.726Y-9.2862
M15
G01X13.726Y-9.2429
M16
G05
G00X14.5276Y-9.1118
M15
G01X14.5276Y-9.0882
M16
G05
G00X14.5276Y-9.2862
M15
G01X14.5276Y-9.2429
M16
G05
G00X14.8678Y-9.1118
M15
G01X14.8678Y-9.0882
M16
G05
G00X14.8678Y-9.2862
M15
G01X14.8678Y-9.2429
M16
G05
G00X22.5197Y-9.1118
M15
G01X22.5197Y-9.0882
M16
G05
G00X22.5197Y-9.2862
M15
G01X22.5197Y-9.2429
M16
G05
G00X22.8599Y-9.1118
M15
G01X22.8599Y-9.0882
M16
G05
G00X22.8599Y-9.2862
M15
G01X22.8599Y-9.2429
M16
G05
T0
M30
