%TF.GenerationSoftware,KiCad,Pcbnew,(6.0.5-0)*%
%TF.CreationDate,2022-11-13T17:01:49-06:00*%
%TF.ProjectId,skogaslider-main-pcb,736b6f67-6173-46c6-9964-65722d6d6169,rev?*%
%TF.SameCoordinates,Original*%
%TF.FileFunction,Soldermask,Bot*%
%TF.FilePolarity,Negative*%
%FSLAX46Y46*%
G04 Gerber Fmt 4.6, Leading zero omitted, Abs format (unit mm)*
G04 Created by KiCad (PCBNEW (6.0.5-0)) date 2022-11-13 17:01:49*
%MOMM*%
%LPD*%
G01*
G04 APERTURE LIST*
%ADD10C,3.600000*%
%ADD11C,5.600000*%
%ADD12C,0.650000*%
%ADD13O,1.000000X2.100000*%
%ADD14O,1.000000X1.600000*%
%ADD15R,1.700000X1.700000*%
%ADD16O,1.700000X1.700000*%
%ADD17C,0.400000*%
%ADD18C,0.600000*%
%ADD19C,1.250000*%
G04 APERTURE END LIST*
D10*
%TO.C,H10*%
X271330000Y-232780000D03*
D11*
X271330000Y-232780000D03*
%TD*%
%TO.C,H9*%
X170321096Y-232780000D03*
D10*
X170321096Y-232780000D03*
%TD*%
D11*
%TO.C,H6*%
X547321096Y-361050000D03*
D10*
X547321096Y-361050000D03*
%TD*%
D11*
%TO.C,H5*%
X271330000Y-361050000D03*
D10*
X271330000Y-361050000D03*
%TD*%
D11*
%TO.C,H4*%
X446340000Y-361050000D03*
D10*
X446340000Y-361050000D03*
%TD*%
D11*
%TO.C,H3*%
X446340000Y-232780000D03*
D10*
X446340000Y-232780000D03*
%TD*%
D11*
%TO.C,H2*%
X547321096Y-232780000D03*
D10*
X547321096Y-232780000D03*
%TD*%
%TO.C,H1*%
X170321096Y-361050000D03*
D11*
X170321096Y-361050000D03*
%TD*%
D12*
%TO.C,J1*%
X370431096Y-234790000D03*
X376211096Y-234790000D03*
D13*
X377641096Y-235320000D03*
X369001096Y-235320000D03*
D14*
X377641096Y-231140000D03*
X369001096Y-231140000D03*
%TD*%
D12*
%TO.C,J6*%
X579211096Y-234790000D03*
X573431096Y-234790000D03*
D14*
X572001096Y-231140000D03*
D13*
X580641096Y-235320000D03*
X572001096Y-235320000D03*
D14*
X580641096Y-231140000D03*
%TD*%
D12*
%TO.C,J2*%
X347211096Y-234790000D03*
X341431096Y-234790000D03*
D14*
X348641096Y-231140000D03*
X340001096Y-231140000D03*
D13*
X340001096Y-235320000D03*
X348641096Y-235320000D03*
%TD*%
D15*
%TO.C,J3*%
X301827346Y-361801669D03*
D16*
X299287346Y-361801669D03*
X296747346Y-361801669D03*
%TD*%
D12*
%TO.C,J5*%
X138431096Y-234790000D03*
X144211096Y-234790000D03*
D13*
X145641096Y-235320000D03*
X137001096Y-235320000D03*
D14*
X145641096Y-231140000D03*
X137001096Y-231140000D03*
%TD*%
D17*
X577320000Y-235040000D03*
X577070000Y-233750000D03*
X140240500Y-237700000D03*
X143050000Y-237360000D03*
D18*
X247660000Y-347850000D03*
D17*
X200190000Y-350690000D03*
X200210000Y-347940000D03*
D18*
X250690000Y-345960000D03*
D17*
X316082346Y-353331669D03*
X312612346Y-354961669D03*
X304106164Y-354643645D03*
X308572346Y-354261669D03*
D18*
X323860000Y-357370000D03*
X325610000Y-355600000D03*
D17*
X127571096Y-286281669D03*
X202984722Y-340551669D03*
X141321096Y-327090668D03*
X203964722Y-340581669D03*
X156571096Y-286281669D03*
X205014722Y-340591669D03*
X205994722Y-340581669D03*
X170321096Y-327090668D03*
X207004722Y-340591669D03*
X185571096Y-286281669D03*
X199321096Y-327090668D03*
X208104722Y-340561669D03*
X214571096Y-286281669D03*
X213554722Y-340561669D03*
X228321096Y-327090668D03*
X216914722Y-340341669D03*
X243571096Y-286281669D03*
X220344722Y-340581669D03*
X257321096Y-327090668D03*
X221414722Y-340591669D03*
X272571096Y-286281669D03*
X222384722Y-340581669D03*
X286321096Y-327090668D03*
X223364722Y-340581669D03*
X378964722Y-342061669D03*
X301571096Y-286281669D03*
X379834722Y-342051669D03*
X315321096Y-327090668D03*
X330571096Y-286281669D03*
X380784722Y-342081669D03*
X344321096Y-327090668D03*
X381764722Y-342071669D03*
X382934722Y-342081669D03*
X359571096Y-286281669D03*
X373321096Y-327090668D03*
X383814722Y-341571669D03*
X388571096Y-286281669D03*
X388034722Y-341861669D03*
X402321096Y-327090668D03*
X390954722Y-341341669D03*
X391964722Y-342091669D03*
X417571096Y-286281669D03*
X392954722Y-342071669D03*
X431321096Y-327090668D03*
X446571096Y-286281669D03*
X393944722Y-342081669D03*
X394924722Y-342071669D03*
X460321096Y-327090668D03*
X475571096Y-286281669D03*
X525704722Y-342422169D03*
X526934722Y-342422169D03*
X489321096Y-327090668D03*
X527954722Y-342422169D03*
X504571096Y-286281669D03*
X518321096Y-327090668D03*
X528934722Y-342422169D03*
X533571096Y-286281669D03*
X531704722Y-341381669D03*
X534654722Y-341161669D03*
X547321096Y-327090668D03*
X562571096Y-286281669D03*
X535764722Y-341441669D03*
X576321096Y-327090668D03*
X536704722Y-341801669D03*
D18*
X345490000Y-243220000D03*
X296864722Y-344531669D03*
X158365480Y-240395480D03*
X124104722Y-334391669D03*
X134984722Y-335551669D03*
X128661344Y-343301669D03*
D17*
X137757763Y-336217086D03*
X141282346Y-339061669D03*
D18*
X591900000Y-330470000D03*
X593830000Y-328070000D03*
X344281637Y-237481519D03*
X344729400Y-238729400D03*
X140910000Y-238400000D03*
X423450000Y-243560000D03*
D17*
X593740000Y-333210000D03*
X391962346Y-351731669D03*
X294752346Y-347991669D03*
X323792346Y-353171669D03*
X385822346Y-352261669D03*
X531020031Y-352476465D03*
X310972346Y-348031669D03*
X580100000Y-243220000D03*
X311271941Y-348582398D03*
X323772346Y-353871669D03*
X533660000Y-352380000D03*
X593920000Y-332330000D03*
X295997518Y-348478125D03*
X212540000Y-349200000D03*
X204870000Y-349780000D03*
X575070000Y-240940000D03*
X339480000Y-243880000D03*
X366310000Y-241940000D03*
D18*
X208683356Y-346501669D03*
X309592346Y-360339782D03*
X268390000Y-345580000D03*
X296222346Y-359041669D03*
X318886939Y-356951169D03*
D19*
X305684722Y-330971669D03*
D18*
X535498596Y-348671669D03*
D19*
X363614722Y-330941669D03*
D18*
X317911716Y-349802044D03*
X313212346Y-360339782D03*
X326052346Y-347871669D03*
X376610000Y-241550000D03*
X301182346Y-354021669D03*
X318786456Y-352801669D03*
D19*
X237930785Y-336097584D03*
D18*
X301172346Y-355141669D03*
D19*
X334452210Y-336097584D03*
D18*
X348910000Y-241470000D03*
X318814722Y-358311669D03*
X369250000Y-238000000D03*
X282422346Y-360241669D03*
X279902346Y-360241669D03*
D19*
X353756495Y-336097584D03*
X286204722Y-331151669D03*
D18*
X376900000Y-237830000D03*
D19*
X276539355Y-336097584D03*
D18*
X301802346Y-359541669D03*
D19*
X373060785Y-336097584D03*
D18*
X308100000Y-347440000D03*
X306042346Y-352523129D03*
X313982346Y-346791140D03*
X281162346Y-351251669D03*
X281172346Y-360241669D03*
X319044722Y-354961669D03*
X315342346Y-359669782D03*
X368380000Y-241870000D03*
X383183596Y-346481669D03*
X296252346Y-351711669D03*
D19*
X344404722Y-331001669D03*
X295843640Y-336097584D03*
D18*
X340300000Y-241360000D03*
X216453356Y-348671669D03*
X283702346Y-360231669D03*
X527668596Y-346501669D03*
D19*
X266904722Y-331061669D03*
X325134722Y-330941669D03*
X315147925Y-336097584D03*
D18*
X579900000Y-238920000D03*
X339820000Y-238310000D03*
D19*
X247504722Y-331091669D03*
D18*
X341154722Y-350951669D03*
X277767469Y-351231669D03*
X391023596Y-348481669D03*
X143650000Y-241110000D03*
D19*
X257235070Y-336097584D03*
D18*
X318786456Y-353871669D03*
M02*
